PathFileType	4	(X/Y/Z)	C:\Users\Basilio\Documents\Thesis Gigler\squatting_fais\c3dfiles\041\SJ_pre5\markers_experimental.trc
DataRate	CameraRate	NumFrames	NumMarkers	Units	OrigDataRate	OrigDataStartFrame	OrigNumFrames
200.000000	200.000000	4	62	mm	200.000000	940	1505
Frame#	Time	FHD			LBHD			RBHD			C7			T10			CLAV			LSHO			LUUPA			LMUPA			LDUPA			LLEP			LMEP			LRAD			LUL			LRFIN			RSHO			RUPA1			RMUPA			RDUPA			RLEP			RMEP			RRAD			RUL			RUFIN			LASI			RASI			USACR			LSACR			RSACR			LTHI1			LTHI2			LTHI3			LTHI4			LLFC			LMFC			LTIB1			LTIB2			LTIB3			LTIB4			LLMAL			LMMAL			LHEE			LMT1			LMT2			LMT5			RTHI			RTHI2			RTHI3			RTHI4			RLFC			RMFC			RTIB1			RTIB2			RTIB3			RTIB4			RLMAL			RMMAL			RHEE			RMT1			RMT2			RMT5			*61			
		X1	Y1	Z1	X2	Y2	Z2	X3	Y3	Z3	X4	Y4	Z4	X5	Y5	Z5	X6	Y6	Z6	X7	Y7	Z7	X8	Y8	Z8	X9	Y9	Z9	X10	Y10	Z10	X11	Y11	Z11	X12	Y12	Z12	X13	Y13	Z13	X14	Y14	Z14	X15	Y15	Z15	X16	Y16	Z16	X17	Y17	Z17	X18	Y18	Z18	X19	Y19	Z19	X20	Y20	Z20	X21	Y21	Z21	X22	Y22	Z22	X23	Y23	Z23	X24	Y24	Z24	X25	Y25	Z25	X26	Y26	Z26	X27	Y27	Z27	X28	Y28	Z28	X29	Y29	Z29	X30	Y30	Z30	X31	Y31	Z31	X32	Y32	Z32	X33	Y33	Z33	X34	Y34	Z34	X35	Y35	Z35	X36	Y36	Z36	X37	Y37	Z37	X38	Y38	Z38	X39	Y39	Z39	X40	Y40	Z40	X41	Y41	Z41	X42	Y42	Z42	X43	Y43	Z43	X44	Y44	Z44	X45	Y45	Z45	X46	Y46	Z46	X47	Y47	Z47	X48	Y48	Z48	X49	Y49	Z49	X50	Y50	Z50	X51	Y51	Z51	X52	Y52	Z52	X53	Y53	Z53	X54	Y54	Z54	X55	Y55	Z55	X56	Y56	Z56	X57	Y57	Z57	X58	Y58	Z58	X59	Y59	Z59	X60	Y60	Z60	X61	Y61	Z61	X62	Y62	Z62	

941	4.7	-154.3953552246094	1766.925659179688	-936.499694824219	-312.9793701171876	1660.065673828125	-1011.882141113281	-293.2550354003907	1665.625610351563	-859.9856567382815	-338.4918518066407	1541.410522460938	-940.1897583007815	-418.4129943847657	1233.1357421875	-942.7979125976565	-187.2525177001953	1476.219482421875	-949.2022705078127	-255.5390930175782	1539.631591796875	-1099.454711914063	-314.5678100585938	1412.344604492188	-1256.173095703125	-303.7780456542969	1364.282592773438	-1251.909301757813	-342.6619262695313	1363.83642578125	-1298.404541015625	-361.6178283691407	1320.211791992188	-1324.441162109375	-434.9001464843751	1298.237548828125	-1272.000122070313	-348.2943420410157	1114.12060546875	-1149.13818359375	-345.0928955078126	1067.6484375	-1209.684204101563	-311.7044982910157	1076.588256835938	-1109.67041015625	-215.8661346435547	1538.596801757813	-787.0211181640627	-269.1160583496094	1421.901733398438	-609.4125976562501	-245.3209838867188	1378.877807617188	-623.9290161132814	-267.7618103027344	1360.173706054688	-574.0527343750001	-276.5108642578126	1314.063598632813	-552.6188964843751	-366.0646057128907	1315.274658203125	-584.3090209960939	-341.3982849121094	1140.537231445313	-736.9816894531251	-308.2692565917969	1116.767578125	-788.4661865234377	-318.4897155761719	1089.126708984375	-684.8559570312501	-293.9243774414063	1016.718078613281	-1046.000854492188	-293.8617248535157	1039.427612304688	-843.1918945312502	-455.0354309082032	1131.15234375	-948.4661254882815	-476.6952514648439	1109.511474609375	-975.6062622070315	-482.4664611816407	1109.913452148438	-922.288513183594	-415.846160888672	836.3117675781252	-1146.4951171875	-364.0287475585938	769.3756103515627	-1159.9111328125	-318.8574829101563	780.2901000976565	-1151.849731445313	-379.8711547851563	709.5897216796876	-1156.700073242188	-324.9161987304688	542.6126098632814	-1179.767333984375	-307.2643127441407	503.330291748047	-1069.7333984375	-311.3821716308594	342.9190673828126	-1161.621704101563	-367.8317871093751	318.4754638671876	-1225.429809570313	-329.2468566894532	305.2317199707032	-1205.469482421875	-342.1253967285157	224.6285705566407	-1186.962158203125	-417.4197082519532	141.8579711914063	-1239.536376953125	-373.0831298828126	136.062240600586	-1160.116455078125	-481.5007629394532	109.056999206543	-1201.500366210938	-273.5679016113282	59.78657150268556	-1180.435668945313	-269.3095703125001	54.98778915405275	-1224.476684570313	-315.1758422851563	35.44344711303712	-1277.489013671875	-408.150604248047	774.3001708984377	-744.4335937500001	-360.2104187011719	729.6478881835939	-731.9855957031251	-328.0459289550782	737.5120849609376	-734.4513549804689	-369.8298645019532	645.4067993164064	-741.3412475585939	-344.9195251464844	526.4868774414064	-726.2410888671876	-316.2841491699219	497.1247558593751	-837.8740844726565	-323.0260009765626	357.8604431152344	-717.3969116210939	-415.7163085937501	293.7461242675782	-703.8583984375001	-371.3889160156251	286.3099060058594	-701.0217285156251	-352.9903564453126	232.8874511718751	-722.8095092773439	-428.5284118652345	126.8233947753907	-702.9062500000001	-392.816619873047	131.8804931640625	-780.009460449219	-488.2944946289064	96.27466583251956	-756.2402954101564	-277.1390380859376	51.21523666381837	-745.2312011718751	-279.8818664550782	52.32947158813478	-693.9967041015626	-329.5564575195313	38.08054733276368	-649.2256469726564	-4216.848632812501	853.1031494140627	-3944.556640625001	
942	4.705	-157.5251922607422	1779.86376953125	-936.3709106445315	-315.8948364257813	1673.244384765625	-1011.803039550781	-296.3359680175782	1678.771850585938	-860.200378417969	-341.1638793945313	1553.4296875	-939.8660888671877	-417.0441284179689	1244.142333984375	-942.7312011718752	-189.279296875	1490.771606445313	-949.3572387695315	-258.8929138183594	1552.975463867188	-1099.254028320313	-316.7342529296876	1425.130615234375	-1255.969360351563	-304.7953491210938	1377.3056640625	-1251.874145507813	-344.0549621582032	1376.265747070313	-1298.096557617188	-362.6691284179688	1332.514526367188	-1324.14013671875	-435.5209350585939	1309.3095703125	-1271.410522460938	-345.9315490722657	1126.009643554688	-1149.378662109375	-342.3681030273438	1079.600708007813	-1210.006103515625	-308.6788024902344	1088.610717773438	-1109.958374023438	-219.0059814453126	1552.3603515625	-786.938415527344	-271.3613586425782	1435.468383789063	-609.5621337890626	-246.7954406738282	1392.79833984375	-623.4360351562501	-269.5273437500001	1373.721801757813	-573.7135620117189	-277.4302673339844	1327.8515625	-552.5922851562501	-367.1519775390626	1327.371215820313	-584.5192260742189	-338.4498291015626	1153.170654296875	-737.3172607421876	-305.1644592285157	1129.45849609375	-788.8070068359377	-315.4017639160157	1102.107666015625	-685.1218872070314	-290.5924682617188	1029.30029296875	-1046.238525390625	-290.3984069824219	1051.733154296875	-843.4359130859377	-451.9945068359376	1141.966552734375	-948.5639648437502	-473.6323852539064	1120.396484375	-975.5410156250002	-474.354949951172	1120.3154296875	-920.7543945312502	-415.3781127929689	848.417419433594	-1147.227416992188	-365.4745178222657	780.4072875976565	-1159.855224609375	-320.0072021484376	790.3096923828127	-1151.88525390625	-382.8928222656251	721.2009887695314	-1157.134887695313	-332.1920166015626	551.6227416992189	-1179.766967773438	-314.4742431640626	512.0968627929689	-1069.60205078125	-314.2033996582032	351.5952758789063	-1162.240234375	-369.9479980468751	325.6899414062501	-1226.235107421875	-330.9770812988282	313.8926391601563	-1206.300048828125	-340.9195556640626	232.4815368652344	-1187.9228515625	-413.926483154297	147.6629028320313	-1240.206787109375	-368.4504699707032	141.3746032714844	-1161.6435546875	-477.2031250000001	117.3879852294922	-1200.816162109375	-272.0362548828126	60.21510314941408	-1180.517578125	-268.0917358398438	55.41826629638673	-1224.119262695313	-314.4451599121094	36.37421035766602	-1276.954956054688	-409.9842224121095	785.7783813476565	-744.6943359375001	-363.2213439941407	739.6835937500001	-732.7872924804689	-330.8454284667969	746.9562988281251	-735.2385864257814	-375.0146484375001	656.0539550781251	-742.0729980468751	-352.9091186523438	535.4375610351564	-726.9060668945314	-324.1970520019532	506.0704345703126	-838.9456787109377	-327.4777832031251	367.0143432617188	-717.0797119140626	-418.1121520996095	300.3115844726563	-703.5542602539064	-373.4286804199219	294.1703186035157	-700.2507934570314	-353.3314208984376	241.0919647216797	-721.3292846679689	-425.5594787597657	132.8614044189453	-701.7531738281251	-389.4908142089845	137.8431243896485	-778.201354980469	-484.7645263671876	104.7550506591797	-755.4902954101564	-276.2279663085938	51.59437179565431	-744.8241577148439	-278.6571350097657	52.01824188232423	-693.3717041015626	-328.8132324218751	38.89636230468751	-649.1168212890626	-4216.665039062501	853.1452636718752	-3944.618164062501	
943	4.71	-160.577621459961	1792.51171875	-936.0220947265627	-318.8587951660157	1686.195190429688	-1011.875305175781	-299.2683715820313	1691.703247070313	-859.887634277344	-343.8525085449219	1565.205688476563	-939.6185302734377	-415.7773437500001	1255.2080078125	-942.7504882812502	-191.1747283935547	1504.849609375	-949.2135009765627	-262.3598022460938	1566.199829101563	-1099.224365234375	-318.9464721679688	1437.856689453125	-1255.703369140625	-306.4180908203126	1390.379028320313	-1251.834350585938	-345.5316467285157	1388.710815429688	-1297.988037109375	-363.7908325195313	1344.658203125	-1323.830932617188	-436.0549621582032	1320.3515625	-1270.819946289063	-342.6754455566407	1137.664916992188	-1150.044799804688	-339.7430114746094	1091.468872070313	-1210.248168945313	-306.2036437988282	1100.775268554688	-1110.38232421875	-222.3182983398438	1565.877197265625	-786.7127685546877	-274.0054626464844	1448.704956054688	-609.4912109375001	-248.2135009765626	1406.450927734375	-623.1452026367189	-270.8648986816407	1387.388549804688	-574.0111083984376	-278.7542419433594	1341.119384765625	-552.1365966796876	-368.0769348144532	1339.407348632813	-584.8214721679689	-335.8839416503907	1165.526611328125	-737.6118164062501	-302.0473632812501	1141.978515625	-789.0866699218752	-312.2785644531251	1114.950927734375	-685.2477416992189	-286.9630126953126	1041.707763671875	-1046.278564453125	-287.0440368652344	1064.158935546875	-843.6701660156252	-448.8706970214845	1152.815795898438	-948.6923828125002	-470.2185058593751	1131.031494140625	-975.761901855469	-470.976776123047	1131.028442382813	-920.7564697265627	-415.0631103515626	860.5783691406252	-1147.841796875	-366.6634216308594	791.327087402344	-1159.951904296875	-321.1331481933594	800.3619384765627	-1151.902587890625	-385.5711975097657	732.6058349609376	-1157.597900390625	-339.8820190429688	560.8740844726564	-1179.552856445313	-321.8423461914063	521.1159057617189	-1069.146362304688	-317.1480712890626	361.3027954101563	-1162.939819335938	-371.5530395507813	333.7966308593751	-1226.9384765625	-332.3210449218751	322.6665039062501	-1207.372314453125	-339.4263305664063	241.1113433837891	-1188.944458007813	-409.8778686523439	154.0993804931641	-1240.865112304688	-362.5147705078126	147.1608428955078	-1163.645385742188	-472.1365356445314	126.6248779296875	-1200.3359375	-269.9233398437501	61.22130203247072	-1180.843627929688	-266.5309753417969	55.74539184570314	-1223.664672851563	-313.7857971191407	38.03788757324219	-1276.294067382813	-411.7999877929689	797.5252685546877	-744.7326049804689	-366.3178405761719	750.4194946289064	-733.5379028320314	-333.6861267089844	756.8406372070314	-735.9270019531251	-380.0944824218751	667.0393676757814	-742.4542236328126	-360.8329162597657	544.7428588867189	-727.9376831054689	-331.6592712402344	515.4273071289064	-840.059509277344	-331.5155334472657	376.7797241210938	-717.0409545898439	-420.0508422851564	307.3833923339844	-703.6462402343751	-375.1378173828126	302.4855957031251	-699.3710937500001	-353.4415283203126	249.9660034179688	-719.9402465820314	-422.051239013672	139.4945373535157	-700.3639526367189	-384.7506103515626	144.1192779541016	-775.9509887695315	-480.553192138672	114.1990737915039	-754.9003295898439	-275.1819152832032	52.25658798217775	-743.9319458007814	-277.7080993652344	51.73414611816408	-692.6494750976564	-327.8810424804688	40.15159225463868	-649.1762084960939	-4216.770507812501	853.165466308594	-3944.786376953126	
944	4.715	-163.1067352294922	1804.901123046875	-935.9321289062502	-321.5258178710938	1698.92138671875	-1011.830261230469	-302.4785766601563	1704.440551757813	-859.931091308594	-346.3458557128907	1576.743408203125	-939.3627929687502	-414.6848754882814	1266.207153320313	-942.8438720703127	-193.3781738281251	1518.695922851563	-949.0025634765627	-265.4673767089844	1579.03662109375	-1099.030151367188	-321.3067932128907	1450.466064453125	-1255.662475585938	-307.8117675781251	1403.217163085938	-1251.980834960938	-347.4830322265626	1401.0205078125	-1297.750244140625	-365.0815429687501	1356.677490234375	-1323.43701171875	-436.6304016113282	1331.448120117188	-1270.16064453125	-341.6644592285157	1149.539672851563	-1149.710571289063	-337.5620727539063	1103.416625976563	-1210.560180664063	-303.4493408203126	1112.598388671875	-1110.614379882813	-225.4105529785157	1579.15673828125	-786.463073730469	-276.2138366699219	1461.473754882813	-609.3959960937501	-249.759750366211	1419.7578125	-622.8657226562501	-272.6058959960938	1400.323974609375	-573.7113647460939	-279.7142639160157	1353.991577148438	-552.0682373046876	-368.9900207519532	1350.9208984375	-585.1571044921876	-333.4645385742188	1177.666381835938	-737.9066162109376	-299.4139709472657	1154.313110351563	-789.3134765625002	-309.4766845703126	1127.427978515625	-685.3314819335939	-283.6249084472657	1053.900146484375	-1046.213500976563	-283.8881530761719	1076.356689453125	-843.8131103515627	-445.8392333984376	1163.576538085938	-948.6854248046877	-467.0305175781251	1141.54150390625	-975.633972167969	-467.6796264648439	1141.5888671875	-920.7993774414065	-414.5080566406251	872.962585449219	-1148.67333984375	-367.7142028808594	802.1896972656252	-1160.031005859375	-322.3496398925782	810.3785400390627	-1151.939819335938	-388.6099548339845	744.3768920898439	-1158.081665039063	-347.9573974609376	570.1677246093751	-1178.994873046875	-329.4193725585938	530.2893676757814	-1068.545776367188	-319.6401062011719	370.7674560546876	-1163.95556640625	-373.8139343261719	342.0251464843751	-1227.449829101563	-334.1940612792969	332.5693969726563	-1207.912109375	-337.0123901367188	249.909652709961	-1190.874633789063	-404.9485778808595	161.3214874267578	-1241.4501953125	-355.9261779785157	153.9019775390625	-1165.42138671875	-466.0367431640626	137.0654907226563	-1199.63134765625	-267.5437011718751	62.89636993408205	-1180.733276367188	-264.1454467773438	56.71014404296876	-1224.185302734375	-313.1785583496094	40.86600494384766	-1276.118286132813	-413.7268066406251	809.8308105468752	-744.8439331054689	-369.1555175781251	761.3430786132814	-734.3999023437501	-336.5318603515626	767.0433959960939	-736.8155517578126	-385.2255249023439	678.4085083007814	-743.0653076171876	-369.0815124511719	554.2364501953126	-729.1186523437501	-339.3087463378907	524.7681884765626	-841.756774902344	-336.0642395019532	386.8788146972657	-717.0703125000001	-421.8955383300782	314.7284545898438	-703.5953979492189	-376.9898986816407	311.3700256347657	-698.3511352539064	-353.1184997558594	259.4707946777344	-718.6115722656251	-417.4024353027345	146.3583221435547	-698.6577148437501	-379.3210449218751	151.404541015625	-773.723083496094	-475.2019042968751	124.6057205200196	-754.3302001953126	-273.3330688476563	52.87694168090822	-743.3730468750001	-275.9864501953126	52.17110443115236	-692.2013549804689	-326.4779052734376	41.88801193237305	-649.3187255859376	-4216.665039062501	853.1375732421877	-3944.708496093751	
